<?xml version="1.0" encoding="UTF-8" standalone="no"?>
<!-- Created with Inkscape (http://www.inkscape.org/) -->

<svg
   width="100"
   height="100"
   viewBox="0 0 26.458333 26.458333"
   version="1.1"
   id="svg5"
   inkscape:version="1.1.1 (3bf5ae0d25, 2021-09-20)"
   sodipodi:docname="icon.svg"
   xmlns:inkscape="http://www.inkscape.org/namespaces/inkscape"
   xmlns:sodipodi="http://sodipodi.sourceforge.net/DTD/sodipodi-0.dtd"
   xmlns="http://www.w3.org/2000/svg"
   xmlns:svg="http://www.w3.org/2000/svg">
  <sodipodi:namedview
     id="namedview7"
     pagecolor="#ffffff"
     bordercolor="#666666"
     borderopacity="1.0"
     inkscape:pageshadow="2"
     inkscape:pageopacity="0.0"
     inkscape:pagecheckerboard="0"
     inkscape:document-units="px"
     showgrid="false"
     inkscape:zoom="6.6"
     inkscape:cx="49.924242"
     inkscape:cy="55.984848"
     inkscape:window-width="1920"
     inkscape:window-height="1013"
     inkscape:window-x="0"
     inkscape:window-y="38"
     inkscape:window-maximized="1"
     inkscape:current-layer="layer1" />
  <defs
     id="defs2" />
  <g
     inkscape:label="Layer 1"
     inkscape:groupmode="layer"
     id="layer1">
    <rect
       style="fill:#333333;stroke:none;stroke-width:0.265112"
       id="rect882"
       width="26.458334"
       height="26.458332"
       x="0"
       y="0" />
    <text
       xml:space="preserve"
       style="font-size:34.5493px;line-height:1.25;font-family:'Source Code Variable';-inkscape-font-specification:'Source Code Variable';text-align:center;text-anchor:middle;fill:#b3b3b3;stroke-width:0.264584"
       x="13.677432"
       y="25.095026"
       id="text2638"
       transform="scale(1.0362998,0.96497168)"><tspan
         sodipodi:role="line"
         id="tspan2636"
         style="font-style:normal;font-variant:normal;font-weight:bold;font-stretch:normal;font-family:'Source Code Variable';-inkscape-font-specification:'Source Code Variable Bold';fill:#b3b3b3;stroke-width:0.264584"
         x="13.677432"
         y="25.095026">&gt;</tspan></text>
    <path
       style="fill:#660099;fill-opacity:1;stroke-width:1.002"
       d="M 0,50 V 0 h 50 50 v 50 50 H 50 0 Z m 52.353629,21.9926 26.055462,-15.734673 0.03235,-6.500175 0.03235,-6.500176 L 52.911135,27.837035 C 38.851677,19.355736 27.058712,12.243917 26.704545,12.032992 l -0.643939,-0.383501 v 8.474315 8.474314 l 17.954546,10.433321 c 11.404712,6.627238 17.954004,10.517132 17.953062,10.663062 -9.09e-4,0.144358 -6.659649,4.121242 -17.916667,10.700642 l -17.915183,10.470903 -0.03915,8.430613 c -0.02153,4.636836 0.01487,8.430612 0.0809,8.430612 0.06603,0 11.845011,-7.080603 26.175515,-15.734673 z"
       id="path1082"
       transform="scale(0.26458333)" />
    <path
       style="fill:#580085;fill-opacity:1;stroke-width:1.002"
       d="M 0,50 V 0 h 50 50 v 50 50 H 50 0 Z M 33.610653,83.382789 C 37.583127,80.993323 47.719697,74.879912 56.136364,69.797433 64.55303,64.714953 73.02533,59.603142 74.963697,58.437853 l 3.524305,-2.118708 -0.03946,-6.600053 -0.03945,-6.600053 L 52.348485,27.396438 C 38.015152,18.749006 26.236742,11.672223 26.174242,11.670251 c -0.0625,-0.002 -0.11218,3.831643 -0.110401,8.519143 l 0.0032,8.522727 4.049796,2.339726 c 8.290715,4.789867 26.559048,15.467112 28.974045,16.93438 1.375,0.835403 2.5,1.605793 2.5,1.711978 0,0.286713 -5.436601,3.537636 -26.477273,15.832607 l -9.05303,5.290076 v 8.453192 c 0,5.953394 0.0484,8.453193 0.163683,8.453193 0.09003,0 3.41389,-1.955018 7.386364,-4.344484 z"
       id="path11250"
       transform="scale(0.26458333)" />
  </g>
</svg>
